<?xml version="1.0" encoding="UTF-8"?>
<svg id="Layer_2" data-name="Layer 2" xmlns="http://www.w3.org/2000/svg" viewBox="0 0 1842.33 1890.95">
  <defs>
    <style>
      .cls-1 {
        fill: none;
        stroke: #fff;
        stroke-miterlimit: 10;
        stroke-width: 164.28px;
      }
    </style>
  </defs>
  <g id="Layer_1-2" data-name="Layer 1">
    <path class="cls-1" d="M849.95,107.52L123.53,700.55c-26.2,21.39-41.39,53.41-41.39,87.23v908.41c0,62.19,50.42,112.61,112.61,112.61h433.81c31.58,0,57.18-25.6,57.18-57.18v-497.93c0-31.58,25.6-57.18,57.18-57.18h356.52c31.58,0,57.18,25.6,57.18,57.18v497.93c0,31.58,25.6,57.18,57.18,57.18h433.81c62.19,0,112.61-50.42,112.61-112.61v-908.41c0-33.82-15.2-65.84-41.39-87.23L992.38,107.52c-41.45-33.84-100.98-33.84-142.43,0Z"/>
  </g>
</svg>